<svg id="Layer_1" data-name="Layer 1" xmlns="http://www.w3.org/2000/svg" xmlns:xlink="http://www.w3.org/1999/xlink" viewBox="0 0 658.05 443.24"><defs><style>.cls-1{fill:none;}.cls-2{clip-path:url(#clip-path);}.cls-3{fill:#9aca3c;}.cls-4{fill:#006f45;}</style><clipPath id="clip-path" transform="translate(-68.93 -77.11)"><rect class="cls-1" x="68.94" y="77.11" width="658.04" height="470.74"/></clipPath></defs><title>akilimo_logo</title><g class="cls-2"><path class="cls-3" d="M369.72,124.66a6.51,6.51,0,1,0,6.51,6.51,6.51,6.51,0,0,0-6.51-6.51" transform="translate(-68.93 -77.11)"/></g><path class="cls-4" d="M123,370.6,147.21,425H98.63Zm-5.48-14L68.93,463.94H81.27L93.9,435.77h58l12.49,28.17h13L128.78,356.59Z" transform="translate(-68.93 -77.11)"/><polygon class="cls-4" points="129.43 280.24 141.45 280.24 141.45 343.89 202.66 280.24 218.2 280.24 172.51 326.83 220.17 386.83 205.11 386.83 164.14 335.2 141.45 358.2 141.45 386.83 129.43 386.83 129.43 280.24"/><rect class="cls-4" x="239.97" y="280.24" width="12.03" height="106.59"/><rect class="cls-4" x="378.52" y="280.24" width="12.03" height="106.59"/><polygon class="cls-4" points="421.76 280.24 433.94 280.24 472.77 338.4 511.61 280.24 523.78 280.24 523.78 386.83 511.76 386.83 511.76 300.49 472.93 357.59 472.32 357.59 433.49 300.64 433.49 386.83 421.76 386.83 421.76 280.24"/><g class="cls-2"><path class="cls-4" d="M714.38,411v-.31c0-24.21-17.66-44-42-44s-41.72,19.49-41.72,43.7v.3c0,24.22,17.66,44,42,44s41.72-19.49,41.72-43.7m-96.23,0v-.31c0-29.38,22.07-55.12,54.51-55.12s54.21,25.43,54.21,54.82c.15.15.15.15,0,.3,0,29.39-22.08,55.13-54.52,55.13s-54.2-25.43-54.2-54.82" transform="translate(-68.93 -77.11)"/><path class="cls-3" d="M335.26,191.2a6.51,6.51,0,1,0-6.51,6.5,6.52,6.52,0,0,0,6.51-6.5" transform="translate(-68.93 -77.11)"/><path class="cls-3" d="M322.91,255.24a6.51,6.51,0,1,0,6.5-6.51,6.51,6.51,0,0,0-6.5,6.51" transform="translate(-68.93 -77.11)"/><path class="cls-3" d="M427,250.85a6.51,6.51,0,1,0-6.5,6.5,6.51,6.51,0,0,0,6.5-6.5" transform="translate(-68.93 -77.11)"/><path class="cls-3" d="M456.67,246.5c2.09-.23,9.08-2.1,9.57-8.56s-5.43-12.91-9.1-18.11-6.31-9.83-10.36-14.6-5-10.47-3.25-16.78,4.93-21.38.58-35.74-24.18-56.63-69.45-75.6h-3.48s-78.69,30.76-89.35,109.16l30.54-.37a17.22,17.22,0,1,1,0,10.7l-31.59.39c-.12,2.34-.2,4.7-.2,7.11,0,65,48.24,98.61,71.52,111V463.94h72V452.82h-60l.2-192.43-18.59.14a17.22,17.22,0,1,1,0-10.7l18.63-.14V147.52a17.22,17.22,0,1,1,10.71,0v76.91l24.72-24.72a17.25,17.25,0,1,1,7.85,7.29l-32.57,32.57v34H391l14.25-14.7a17.3,17.3,0,1,1,7.68,7.46l-17.39,17.95H375.08v33l0,6.68s6.12,1.54,16.71,4.45c14.26,3.92,36.52,8.31,45.5-.33s7.19-16.33,7.3-18.54-.85-4.87,3-6.17,11-3,11.75-7.84,3-13-8.43-14.68c0,0,9.69-3.94,10.26-8.65s1.85-6.3-.52-10.41-5.83-11.19-6.46-12.54.46-2.49,2.55-2.72" transform="translate(-68.93 -77.11)"/><path class="cls-3" d="M421.36,191.38a6.51,6.51,0,1,0-6.5,6.5,6.51,6.51,0,0,0,6.5-6.5" transform="translate(-68.93 -77.11)"/></g><path class="cls-3" d="M99.76,511.21l5.55-18.6h6.22l-8.89,27.33H97.09L91,501.39l-6.12,18.55H79.36l-8.78-27.33H77l5.45,18.6,6-18.71H93.7Z" transform="translate(-68.93 -77.11)"/><path class="cls-3" d="M138.61,513.49a7.66,7.66,0,0,0,5.14,1.78,9.18,9.18,0,0,0,4-.82,13,13,0,0,0,3.34-2.42l3.65,3.24a15.07,15.07,0,0,1-4.65,3.7,14,14,0,0,1-6.45,1.38,14.58,14.58,0,0,1-5.47-1,13.52,13.52,0,0,1-4.42-2.88A13.36,13.36,0,0,1,130.8,512a14.85,14.85,0,0,1-1.08-5.78,15.32,15.32,0,0,1,1-5.49,13.73,13.73,0,0,1,2.75-4.5,13.57,13.57,0,0,1,4.19-3.06A12.49,12.49,0,0,1,143,492a13,13,0,0,1,5.68,1.18,11.65,11.65,0,0,1,4.06,3.19,13.82,13.82,0,0,1,2.44,4.68,18.83,18.83,0,0,1,.82,5.6c0,.27,0,.54,0,.82s0,.56-.08.87H135.94A8.11,8.11,0,0,0,138.61,513.49Zm11.2-9.22a10.62,10.62,0,0,0-.67-2.8,7,7,0,0,0-1.39-2.26,6.62,6.62,0,0,0-2.08-1.52,6.49,6.49,0,0,0-2.75-.56,6.26,6.26,0,0,0-4.75,2,9,9,0,0,0-2.29,5.16Z" transform="translate(-68.93 -77.11)"/><path class="cls-3" d="M233.92,519.74h-7.19L218.56,508l-3.81,4v7.76h-6.26V482.23h6.26v22.4l11.26-12h7.55l-10.79,11Z" transform="translate(-68.93 -77.11)"/><path class="cls-3" d="M260.07,519.74H253.8V492.61h6.27v4.25a16.38,16.38,0,0,1,1.46-1.84,9.6,9.6,0,0,1,1.85-1.53,9.46,9.46,0,0,1,2.3-1.06,9.63,9.63,0,0,1,2.85-.39,9.05,9.05,0,0,1,7.12,2.83,11,11,0,0,1,2.51,7.6v17.27h-6.27V504.36a7.23,7.23,0,0,0-1.5-4.9,5.37,5.37,0,0,0-4.26-1.71,5.79,5.79,0,0,0-4.38,1.76,6.9,6.9,0,0,0-1.68,4.95Z" transform="translate(-68.93 -77.11)"/><path class="cls-3" d="M327.41,511.67a14,14,0,0,1-7.63,7.55,15.49,15.49,0,0,1-11.54,0,13.93,13.93,0,0,1-7.58-7.5,14.48,14.48,0,0,1,0-11,14.25,14.25,0,0,1,3-4.52A14.44,14.44,0,0,1,314.07,492a14.86,14.86,0,0,1,5.79,1.11,13.82,13.82,0,0,1,7.57,7.52,14.09,14.09,0,0,1,1.08,5.5A13.89,13.89,0,0,1,327.41,511.67Zm-5.78-8.79a9,9,0,0,0-1.71-2.8,8,8,0,0,0-2.6-1.9,8.45,8.45,0,0,0-6.69,0,7.74,7.74,0,0,0-2.58,1.88,8.12,8.12,0,0,0-1.64,2.75,10,10,0,0,0-.56,3.36,9.56,9.56,0,0,0,.62,3.42,8.21,8.21,0,0,0,1.71,2.8,8.11,8.11,0,0,0,2.6,1.87,7.68,7.68,0,0,0,3.29.7,7.91,7.91,0,0,0,6-2.57,8.09,8.09,0,0,0,1.63-2.75,9.75,9.75,0,0,0,.56-3.36A9.4,9.4,0,0,0,321.63,502.88Z" transform="translate(-68.93 -77.11)"/><path class="cls-3" d="M375.89,511.21l5.55-18.6h6.21l-8.89,27.33h-5.54l-6.07-18.55L361,519.94h-5.55l-8.79-27.33h6.37l5.45,18.6,6-18.71h5.29Z" transform="translate(-68.93 -77.11)"/><path class="cls-3" d="M458.56,518.94a13.47,13.47,0,0,1-6.53,1.41A13.87,13.87,0,0,1,442,516.22a14.2,14.2,0,0,1-3-4.47,14,14,0,0,1-1.06-5.47,14.27,14.27,0,0,1,4-10,15,15,0,0,1,16.51-2.93,14.91,14.91,0,0,1,4.45,3.39l-3.86,4.16a14.34,14.34,0,0,0-3.05-2.44,7.8,7.8,0,0,0-4-.95,7.14,7.14,0,0,0-3.13.69,7.62,7.62,0,0,0-2.47,1.88,8.94,8.94,0,0,0-1.61,2.75,9.28,9.28,0,0,0-.6,3.36,9.64,9.64,0,0,0,.6,3.44,8.29,8.29,0,0,0,1.67,2.78,8,8,0,0,0,2.56,1.87,7.61,7.61,0,0,0,3.29.7,7.72,7.72,0,0,0,3.88-1,15,15,0,0,0,3.16-2.44l3.75,3.7A17.1,17.1,0,0,1,458.56,518.94Z" transform="translate(-68.93 -77.11)"/><path class="cls-3" d="M500.8,519.74V516.4a11.71,11.71,0,0,1-3.55,2.77A11.21,11.21,0,0,1,492,520.3a12.45,12.45,0,0,1-3.7-.54,9.28,9.28,0,0,1-3.06-1.59,7.78,7.78,0,0,1-2.9-6.24v-.11a8.5,8.5,0,0,1,.82-3.85,7.45,7.45,0,0,1,2.29-2.72,10.31,10.31,0,0,1,3.49-1.62,17.11,17.11,0,0,1,4.4-.54,23.64,23.64,0,0,1,4.18.31,24.78,24.78,0,0,1,3.32.82v-.67a5.41,5.41,0,0,0-1.72-4.31,7.33,7.33,0,0,0-5-1.49,16.5,16.5,0,0,0-4.11.46,27.51,27.51,0,0,0-3.65,1.23l-1.7-5a28.09,28.09,0,0,1,4.63-1.65,22.86,22.86,0,0,1,5.7-.61q6.06,0,9,3c2,2,2.93,4.82,2.93,8.45v16.09Zm.15-11.51a15.33,15.33,0,0,0-2.8-.77,17.9,17.9,0,0,0-3.42-.31,8,8,0,0,0-4.57,1.13,3.67,3.67,0,0,0-1.64,3.24v.1a3.38,3.38,0,0,0,1.51,3,6.52,6.52,0,0,0,3.73,1,9.57,9.57,0,0,0,2.85-.41,7.59,7.59,0,0,0,2.29-1.16,5.31,5.31,0,0,0,1.51-1.8,5,5,0,0,0,.54-2.34Z" transform="translate(-68.93 -77.11)"/><path class="cls-3" d="M548.38,515.47a7.4,7.4,0,0,1-2.14,2.65,9.56,9.56,0,0,1-3.21,1.59,14,14,0,0,1-3.95.54,18.12,18.12,0,0,1-5.94-1,18.79,18.79,0,0,1-5.57-3l2.77-4.21a18,18,0,0,0,4.5,2.49,12.46,12.46,0,0,0,4.39.85,5.26,5.26,0,0,0,3.11-.8,2.51,2.51,0,0,0,1.1-2.13v-.1A2,2,0,0,0,543,511a4.47,4.47,0,0,0-1.34-1,11.83,11.83,0,0,0-2-.77l-2.29-.7c-1-.3-2-.65-3-1a11.09,11.09,0,0,1-2.72-1.47,7.5,7.5,0,0,1-2-2.21,6.37,6.37,0,0,1-.77-3.26v-.1a7.8,7.8,0,0,1,.75-3.45,7.71,7.71,0,0,1,2.05-2.62,9.23,9.23,0,0,1,3.09-1.64,12.24,12.24,0,0,1,3.77-.56,17.23,17.23,0,0,1,5.19.82,18.61,18.61,0,0,1,4.78,2.26l-2.47,4.42a20.57,20.57,0,0,0-3.95-1.88,11.45,11.45,0,0,0-3.7-.69,4.46,4.46,0,0,0-2.8.77,2.35,2.35,0,0,0-1,1.95v.1a1.78,1.78,0,0,0,.51,1.26,5.07,5.07,0,0,0,1.36,1,16.61,16.61,0,0,0,1.95.82c.74.26,1.5.51,2.29.75,1,.3,2,.66,3,1.07a13.1,13.1,0,0,1,2.7,1.52,7.77,7.77,0,0,1,2,2.18,6.06,6.06,0,0,1,.77,3.14v.1A8.57,8.57,0,0,1,548.38,515.47Z" transform="translate(-68.93 -77.11)"/><path class="cls-3" d="M589,515.47a7.48,7.48,0,0,1-2.13,2.65,9.61,9.61,0,0,1-3.22,1.59,14,14,0,0,1-4,.54,18.16,18.16,0,0,1-5.94-1,18.79,18.79,0,0,1-5.57-3l2.77-4.21a18,18,0,0,0,4.5,2.49,12.5,12.5,0,0,0,4.39.85,5.26,5.26,0,0,0,3.11-.8,2.48,2.48,0,0,0,1.1-2.13v-.1a2,2,0,0,0-.48-1.34,4.34,4.34,0,0,0-1.34-1,11.49,11.49,0,0,0-2-.77l-2.29-.7c-1-.3-2-.65-3-1a11.16,11.16,0,0,1-2.73-1.47,7.5,7.5,0,0,1-2-2.21,6.37,6.37,0,0,1-.77-3.26v-.1a7.8,7.8,0,0,1,.75-3.45,7.71,7.71,0,0,1,2-2.62,9.33,9.33,0,0,1,3.09-1.64,12.24,12.24,0,0,1,3.77-.56,17.14,17.14,0,0,1,5.19.82,18.61,18.61,0,0,1,4.78,2.26l-2.46,4.42a20.93,20.93,0,0,0-4-1.88,11.45,11.45,0,0,0-3.7-.69,4.46,4.46,0,0,0-2.8.77,2.35,2.35,0,0,0-1,1.95v.1a1.78,1.78,0,0,0,.51,1.26,5.07,5.07,0,0,0,1.36,1A16.61,16.61,0,0,0,579,503c.74.26,1.5.51,2.29.75,1,.3,2,.66,3,1.07a13.1,13.1,0,0,1,2.7,1.52,7.77,7.77,0,0,1,2,2.18,6.06,6.06,0,0,1,.77,3.14v.1A8.57,8.57,0,0,1,589,515.47Z" transform="translate(-68.93 -77.11)"/><path class="cls-3" d="M628.07,519.74V516.4a11.71,11.71,0,0,1-3.55,2.77,11.18,11.18,0,0,1-5.24,1.13,12.5,12.5,0,0,1-3.7-.54,9.13,9.13,0,0,1-3.05-1.59,7.75,7.75,0,0,1-2.91-6.24v-.11a8.63,8.63,0,0,1,.82-3.85,7.45,7.45,0,0,1,2.29-2.72,10.27,10.27,0,0,1,3.5-1.62,17,17,0,0,1,4.39-.54,23.84,23.84,0,0,1,4.19.31,25,25,0,0,1,3.31.82v-.67a5.38,5.38,0,0,0-1.72-4.31,7.33,7.33,0,0,0-5-1.49,16.5,16.5,0,0,0-4.11.46,28,28,0,0,0-3.65,1.23l-1.69-5a27.66,27.66,0,0,1,4.62-1.65,23,23,0,0,1,5.7-.61c4.05,0,7,1,9,3s2.92,4.82,2.92,8.45v16.09Zm.15-11.51a15.33,15.33,0,0,0-2.8-.77,17.87,17.87,0,0,0-3.41-.31,8,8,0,0,0-4.58,1.13,3.7,3.7,0,0,0-1.64,3.24v.1a3.38,3.38,0,0,0,1.51,3,6.55,6.55,0,0,0,3.73,1,9.57,9.57,0,0,0,2.85-.41,7.48,7.48,0,0,0,2.29-1.16,5.31,5.31,0,0,0,1.51-1.8,5,5,0,0,0,.54-2.34Z" transform="translate(-68.93 -77.11)"/><path class="cls-3" d="M674.77,492.61h6.53l-11.1,27.33h-5.6l-11.15-27.33h6.68l7.3,19.93Z" transform="translate(-68.93 -77.11)"/><path class="cls-3" d="M717.32,519.74V516.4a11.71,11.71,0,0,1-3.55,2.77,11.18,11.18,0,0,1-5.24,1.13,12.5,12.5,0,0,1-3.7-.54,9.13,9.13,0,0,1-3.05-1.59,7.75,7.75,0,0,1-2.91-6.24v-.11a8.63,8.63,0,0,1,.82-3.85,7.45,7.45,0,0,1,2.29-2.72,10.27,10.27,0,0,1,3.5-1.62,17,17,0,0,1,4.39-.54,23.84,23.84,0,0,1,4.19.31,25,25,0,0,1,3.31.82v-.67a5.38,5.38,0,0,0-1.72-4.31,7.33,7.33,0,0,0-5-1.49,16.5,16.5,0,0,0-4.11.46,28,28,0,0,0-3.65,1.23l-1.69-5a27.66,27.66,0,0,1,4.62-1.65,23,23,0,0,1,5.7-.61c4.05,0,7,1,9,3s2.92,4.82,2.92,8.45v16.09Zm.15-11.51a15.33,15.33,0,0,0-2.8-.77,17.87,17.87,0,0,0-3.41-.31,8,8,0,0,0-4.58,1.13,3.7,3.7,0,0,0-1.64,3.24v.1a3.38,3.38,0,0,0,1.51,3,6.55,6.55,0,0,0,3.73,1,9.57,9.57,0,0,0,2.85-.41,7.48,7.48,0,0,0,2.29-1.16,5.31,5.31,0,0,0,1.51-1.8,5,5,0,0,0,.54-2.34Z" transform="translate(-68.93 -77.11)"/></svg>